<svg height="512pt" viewBox="0 -52 512 511" width="512pt" xmlns="http://www.w3.org/2000/svg"><path d="m376.214844 176.816406h96.175781v15.105469h-96.175781zm0 0"/><path d="m376.214844 240.933594h96.175781v15.105468h-96.175781zm0 0"/><path d="m432.316406 305.050781h40.074219v15.101563h-40.074219zm0 0"/><path d="m400.261719 305.050781h16.027343v15.101563h-16.027343zm0 0"/><path d="m496.894531 353.136719h-345.082031v15.105469h313.023438v24.964843h-264.9375v15.105469h280.042968v-40.070312h32.058594v-264.015626h-15.105469zm0 0"/><path d="m0 .5v367.742188h32.058594v40.070312h143.796875v-15.105469h-128.695313v-40.070312h-32.054687v-337.53125h481.789062v64.578125h15.105469v-79.683594zm0 0"/><path d="m87.234375 320.617188v-65.496094c13.785156-3.394532 24.042969-15.859375 24.042969-30.679688 0-14.816406-10.257813-27.28125-24.042969-30.675781v-25.421875h-15.105469v25.421875c-13.785156 3.394531-24.042968 15.859375-24.042968 30.675781 0 14.820313 10.257812 27.285156 24.042968 30.679688v65.496094zm-24.042969-96.175782c0-9.09375 7.398438-16.492187 16.492188-16.492187 9.089844 0 16.488281 7.398437 16.488281 16.492187s-7.398437 16.492188-16.488281 16.492188c-9.09375 0-16.492188-7.398438-16.492188-16.492188zm0 0"/><path d="m247.523438 320.617188v-65.496094c13.785156-3.394532 24.042968-15.859375 24.042968-30.679688 0-14.816406-10.257812-27.28125-24.042968-30.675781v-25.421875h-15.105469v25.421875c-13.785157 3.394531-24.042969 15.859375-24.042969 30.675781 0 14.820313 10.257812 27.285156 24.042969 30.679688v65.496094zm-24.042969-96.175782c0-9.09375 7.398437-16.492187 16.492187-16.492187 9.089844 0 16.488282 7.398437 16.488282 16.492187s-7.398438 16.492188-16.488282 16.492188c-9.09375 0-16.492187-7.398438-16.492187-16.492188zm0 0"/><path d="m471.925781 40.574219h-431.855469v103.261719h431.855469zm-416.75 88.15625v-16.953125h128.695313v-15.105469h-128.695313v-40.996094h401.648438v40.996094h-248.910157v15.105469h248.910157v16.953125zm0 0"/><path d="m152.273438 295.191406v25.425782h15.105468v-25.425782c13.785156-3.394531 24.042969-15.855468 24.042969-30.675781s-10.257813-27.28125-24.042969-30.675781v-65.496094h-15.105468v65.496094c-13.785157 3.394531-24.042969 15.855468-24.042969 30.675781s10.257812 27.28125 24.042969 30.675781zm7.554687-47.167968c9.089844 0 16.488281 7.398437 16.488281 16.492187s-7.398437 16.488281-16.488281 16.488281c-9.09375 0-16.492187-7.394531-16.492187-16.488281s7.398437-16.492187 16.492187-16.492187zm0 0"/><path d="m327.667969 320.617188v-33.441407c13.785156-3.394531 24.042969-15.855469 24.042969-30.675781 0-14.816406-10.257813-27.28125-24.042969-30.675781v-57.480469h-15.105469v57.480469c-13.785156 3.394531-24.042969 15.859375-24.042969 30.675781 0 14.820312 10.257813 27.28125 24.042969 30.675781v33.441407zm-24.042969-64.117188c0-9.09375 7.398438-16.492188 16.488281-16.492188 9.09375 0 16.492188 7.398438 16.492188 16.492188 0 7.78125-5.421875 14.300781-12.679688 16.027344h-7.621093c-7.257813-1.722656-12.679688-8.246094-12.679688-16.027344zm0 0"/><path d="m376.214844 208.875h96.175781v15.105469h-96.175781zm0 0"/><path d="m376.214844 272.992188h96.175781v15.105468h-96.175781zm0 0"/><path d="m119.753906 353.136719h16.03125v15.105469h-16.03125zm0 0"/><path d="m87.695312 353.136719h16.03125v15.105469h-16.03125zm0 0"/></svg>