<?xml version="1.0" encoding="utf-8"?>
<!-- Generator: Adobe Illustrator 23.0.2, SVG Export Plug-In . SVG Version: 6.00 Build 0)  -->
<svg version="1.1" id="Слой_1" xmlns="http://www.w3.org/2000/svg" xmlns:xlink="http://www.w3.org/1999/xlink" x="0px" y="0px"
	 viewBox="0 0 626.3 30" style="enable-background:new 0 0 626.3 30;" xml:space="preserve">
<style type="text/css">
	.st0{fill:none;stroke:#CC4D52;stroke-width:2;stroke-miterlimit:10;}
</style>
<path class="st0" d="M636,15.1h-40.9c-4.5,0-8.1-0.7-11-1.5c-2.8-0.9-5-2.1-6.7-3.5c-27.8-23-38.5,17.5-38.5,17.5l-11-24.8
	l-13.2,24.8l-11-24.8l-13.2,24.8l-11-24.8l-13.3,24.8L455,2.7l-6.6,12.4l0,0l0,0c-9.2,16.5-35,16.5-44.2,0l0,0l0,0
	c-9.2-16.5-35-16.5-44.2,0l0,0l0,0c-9.2,16.5-35,16.5-44.2,0l0,0l0,0c-9.2-16.5-35-16.5-44.2,0l-10.3,12.4V2.7l-20.4,24.8V2.7
	l-20.5,24.8V2.7L200,27.5V2.7l-10.3,12.4h-22.1v12.4h-22.2V2.7h-22.2v24.8h-22.2V2.7H78.9v24.8H56.8V2.7H34.6v12.4H-7.6"/>
</svg>
